<?xml version="1.0" encoding="UTF-8" standalone="no"?>
<!-- Created with Inkscape (http://www.inkscape.org/) -->

<svg
   version="1.1"
   id="svg1"
   width="327.67999"
   height="327.67999"
   viewBox="0 0 327.67999 327.67999"
   xmlns="http://www.w3.org/2000/svg"
   xmlns:svg="http://www.w3.org/2000/svg">
  <defs
     id="defs1" />
  <g
     id="g1"
     transform="translate(-0.88902,-1.2466632)">
    <g
       id="g2"
       transform="translate(-484.53043,-8.5350889)">
      <path
         style="display:inline;fill:#202229"
         d="M 485.41945,173.62175 V 9.7817521 h 163.84 163.83999 V 173.62175 337.46174 h -163.83999 -163.84 z"
         id="path2" />
      <path
         style="display:inline;fill:#02c8f2"
         d="m 644.77084,176.58175 -0.009,-45.36 -1.30666,-0.8 c -3.38529,-2.07264 -5.04166,-7.40968 -3.60667,-11.62114 0.69531,-2.04065 2.95963,-4.46959 5.18571,-5.56275 1.51253,-0.74275 2.23558,-0.89498 4.22484,-0.88949 4.11825,0.0114 7.18128,1.96994 8.9977,5.75338 2.02373,4.21523 0.67876,9.58794 -3.07501,12.2837 l -1.4423,1.03606 v 45.26012 45.26012 h -4.48 -4.48 z m -40.56536,-9.55628 c -2.04228,-1.04092 -7.73547,-8.30514 -10.73268,-13.69432 -5.04137,-9.06473 -8.21336,-21.06661 -8.21336,-31.077 0,-3.37743 0.72319,-9.61436 1.60627,-13.85278 2.11563,-10.154233 8.12209,-21.692741 15.16139,-29.125285 2.23498,-2.359844 4.04235,-2.861616 6.24521,-1.733837 2.74844,1.407092 3.00119,5.123791 0.50591,7.439502 -2.45117,2.274783 -6.41244,8.031826 -8.78549,12.768229 -9.21685,18.396031 -7.27196,40.735311 4.97571,57.151771 0.91915,1.232 2.27399,2.888 3.01076,3.68 1.8768,2.01748 2.55766,3.19239 2.55905,4.41589 0.004,3.21607 -3.52371,5.45958 -6.33277,4.02783 z m 86.49397,0.0645 c -2.02045,-0.898 -3.11146,-3.06503 -2.58971,-5.14385 0.11462,-0.45667 0.9862,-1.67637 1.93684,-2.71043 9.12592,-9.92672 14.24497,-23.1358 14.25098,-36.77292 0.006,-13.77109 -4.76304,-26.362413 -13.87295,-36.627123 -1.97483,-2.225161 -2.24085,-2.680176 -2.37339,-4.059535 -0.35035,-3.646149 3.44756,-6.060673 6.55388,-4.16664 1.293,0.788381 5.63742,5.995388 8.15338,9.772228 2.26029,3.393045 5.57844,10.072225 6.92781,13.94516 1.97128,5.65792 3.56382,15.06833 3.57025,21.0968 0.006,5.94123 -1.35678,14.0496 -3.38881,20.15804 -2.31395,6.95586 -7.2181,15.48515 -12.29918,21.39069 -2.94687,3.42503 -4.54521,4.15044 -6.8691,3.11758 z m -73.63708,-12.66949 c -2.32026,-1.16833 -7.20008,-7.78256 -9.58185,-12.98748 -6.54049,-14.29302 -5.31892,-30.73942 3.28829,-44.271408 2.08866,-3.283724 5.41858,-6.973276 6.66476,-7.384553 2.19885,-0.725685 4.58525,0.343399 5.46465,2.448111 0.90469,2.165229 0.48785,3.411476 -2.14533,6.413985 -3.45422,3.938695 -6.07715,9.102725 -7.60289,14.968545 -0.74516,2.86484 -0.83502,3.80503 -0.82709,8.65402 0.008,4.59037 0.1252,5.91479 0.75358,8.48 1.37617,5.61788 4.33019,11.33332 8.00543,15.48893 0.91881,1.03891 1.80264,2.23629 1.96405,2.66083 1.42666,3.75239 -2.43164,7.31757 -5.9836,5.52902 z m 61.23404,0.17622 c -2.13236,-0.74741 -3.11696,-2.09658 -3.11696,-4.2711 0,-1.33099 0.34551,-1.87731 3.68326,-5.8239 2.15766,-2.55124 4.96569,-8.09261 6.08024,-11.9988 2.63348,-9.22951 1.67704,-18.73841 -2.75209,-27.3612 -1.45036,-2.82362 -2.14113,-3.79865 -5.57141,-7.864147 -1.17829,-1.396478 -1.28,-1.667531 -1.28,-3.411028 0,-1.772386 0.0754,-1.963098 1.17419,-2.970072 2.49694,-2.288271 4.84895,-1.797383 7.74377,1.616201 8.24303,9.720226 12.25681,22.991586 10.64254,35.189046 -1.2096,9.13972 -4.08173,15.97949 -9.65094,22.98305 -3.217,4.04553 -4.50456,4.76999 -6.9526,3.91195 z m -48.78095,-12.96176 c -2.24813,-1.37077 -5.76554,-6.95138 -7.06759,-11.21324 -0.34951,-1.144 -0.82427,-3.41795 -1.05502,-5.05322 -0.97614,-6.91755 1.36317,-14.73219 6.2134,-20.7563 1.53756,-1.90969 2.30347,-2.35048 4.08414,-2.35048 1.90439,0 3.12261,0.77364 3.86657,2.45548 0.86904,1.96462 0.60267,3.07744 -1.37687,5.75221 -2.12044,2.86515 -2.75058,4.13779 -3.50036,7.06939 -0.78884,3.08434 -0.78884,6.36149 0,9.44583 0.76279,2.98247 1.51671,4.49285 3.39175,6.79489 0.79818,0.97994 1.58999,2.1467 1.7596,2.59279 1.43937,3.78583 -2.86089,7.36913 -6.31562,5.26265 z m 35.16554,0.0906 c -1.82516,-0.89946 -2.8618,-3.89906 -1.94167,-5.61834 0.19794,-0.36985 1.01399,-1.47551 1.81345,-2.45703 1.77642,-2.18097 2.82106,-4.39716 3.43215,-7.28131 1.20192,-5.67271 -0.16827,-11.77948 -3.54659,-15.80658 -2.06763,-2.46471 -2.45955,-3.9995 -1.52451,-5.96997 1.06514,-2.2446 4.25673,-3.07697 6.3358,-1.65237 1.29819,0.88954 3.75102,4.20141 5.14756,6.95037 1.25356,2.4675 2.60828,7.40839 2.90416,10.5919 0.44318,4.76845 -1.26961,11.67501 -3.9723,16.01768 -3.30395,5.3088 -5.62877,6.71359 -8.64805,5.22565 z"
         id="path4" />
      <path
         style="display:inline;fill:#4b5259"
         d="m 636.40202,281.65535 c -2.00063,-0.5387 -3.55884,-1.78221 -4.33197,-3.45709 -0.3663,-0.79354 -1.06842,-4.08704 -1.65782,-7.77652 -1.81449,-11.35824 -1.54385,-10.30244 -2.6996,-10.53171 -1.48959,-0.29549 -7.67157,-2.32263 -10.57114,-3.46639 -2.59084,-1.02198 -10.0919,-4.66292 -12.72831,-6.17819 l -1.48626,-0.85422 -5.07374,3.56401 c -10.38034,7.29162 -10.50526,7.35638 -13.36322,6.92781 -0.77286,-0.1159 -2.0319,-0.6297 -2.79786,-1.14177 -0.76596,-0.51208 -5.02206,-4.57624 -9.458,-9.03149 -8.83322,-8.87165 -9.5192,-9.80983 -9.45774,-12.93491 0.0383,-1.94857 0.39623,-2.70124 2.96742,-6.24033 2.98207,-4.10465 7.19289,-9.98725 7.46273,-10.42561 0.14197,-0.23061 -0.22698,-1.12564 -0.89356,-2.16767 -3.35272,-5.24114 -7.4513,-15.00693 -9.44129,-22.496 -0.20117,-0.75707 -0.53821,-1.43611 -0.74899,-1.50899 -0.21077,-0.0729 -3.91123,-0.64896 -8.22323,-1.28018 -4.31199,-0.63122 -8.31165,-1.29655 -8.88812,-1.47851 -1.43963,-0.45442 -2.84443,-1.70303 -3.68591,-3.2761 -0.688,-1.28615 -0.70836,-1.63623 -0.80017,-13.7544 -0.0813,-10.72834 -0.0238,-12.64671 0.41907,-13.98 0.55308,-1.66516 2.206,-3.41561 3.83748,-4.06391 0.52671,-0.20929 4.12566,-0.88048 7.99765,-1.49153 3.872,-0.61104 7.62674,-1.20611 8.34387,-1.32237 l 1.30386,-0.21138 1.34826,-4.84807 c 1.60472,-5.77025 3.01927,-9.37593 6.05238,-15.42744 l 2.25515,-4.49935 -1.30978,-1.74065 c -0.72039,-0.95735 -3.19554,-4.11664 -5.50035,-7.02064 -2.30481,-2.904 -4.3667,-5.68278 -4.58197,-6.17506 -0.21528,-0.49228 -0.39006,-1.64428 -0.38841,-2.56 0.005,-2.74033 1.02554,-4.04276 10.60619,-13.534923 7.9858,-7.912043 8.88209,-8.702331 10.25251,-9.04 3.61203,-0.889997 3.79785,-0.549473 1.90558,3.49201 -4.25483,9.087413 -6.3183,17.900653 -6.66297,28.457973 -0.52923,16.21072 4.1043,31.24656 13.77452,44.69838 l 1.87883,2.61356 0.0757,6.50403 c 0.0609,5.23246 0.21476,7.1922 0.78715,10.02403 4.16441,20.60277 18.7751,37.25795 38.41953,43.79557 5.90224,1.96425 10.10599,2.76424 15.68,2.98395 15.09936,0.59519 29.47051,-4.78088 41.10496,-15.37686 6.78944,-6.18343 12.43939,-14.94421 15.50542,-24.04266 1.9872,-5.89699 2.68131,-10.35257 2.7555,-17.68774 l 0.0624,-6.16773 1.75348,-2.47227 c 2.7917,-3.93607 3.02575,-4.29933 4.81087,-7.46669 6.44253,-11.43109 9.52698,-24.05154 9.10286,-37.24557 -0.34407,-10.70371 -2.36443,-19.41614 -6.64753,-28.666259 -0.86237,-1.862443 -1.56795,-3.482443 -1.56795,-3.6 0,-0.117558 0.61973,-0.213741 1.37717,-0.213741 2.68126,0 4.00818,1.024763 12.97742,10.022349 4.62115,4.635751 8.68601,8.895511 9.03302,9.466121 0.34702,0.57062 0.71684,1.66422 0.82183,2.43023 0.40289,2.93939 0.15705,3.37886 -6.89283,12.3213 -1.59564,2.024 -3.32433,4.26406 -3.84154,4.97791 l -0.94037,1.29791 2.47249,4.94209 c 2.70974,5.4163 4.58894,10.4033 5.96207,15.82209 0.49058,1.936 0.98071,3.62431 1.08918,3.75181 0.10846,0.1275 3.93768,0.81549 8.50938,1.52886 4.5717,0.71338 8.76862,1.44441 9.32649,1.62452 1.42779,0.46098 3.42152,2.74093 3.89986,4.45974 0.29576,1.06275 0.37427,4.63142 0.3026,13.75507 l -0.0968,12.32 -0.8,1.42579 c -1.44762,2.58001 -2.58714,3.09786 -9.12,4.14454 -3.168,0.50757 -7.10871,1.11179 -8.75714,1.34272 -2.50408,0.3508 -3.03873,0.52738 -3.24993,1.07341 -0.13903,0.35944 -0.99165,2.91834 -1.89471,5.68644 -1.9132,5.86443 -3.92603,10.55006 -6.68503,15.56199 -1.08525,1.97143 -1.97257,3.76007 -1.97181,3.97476 7.6e-4,0.21469 0.56485,1.13354 1.25355,2.04188 3.53099,4.65719 8.69837,12.48371 9.01253,13.65043 0.42561,1.58059 0.2319,3.00021 -0.66109,4.84488 -0.93071,1.9226 -17.24078,18.02418 -19.23587,18.98998 -1.60621,0.77755 -3.46323,0.89806 -5.12274,0.33242 -1.11777,-0.38098 -1.8021,-0.82417 -6.20775,-4.0203 -1.408,-1.02145 -3.97778,-2.84397 -5.71061,-4.05004 l -3.15061,-2.19286 -1.48939,0.85866 c -5.77526,3.32954 -14.85247,7.24982 -20.36939,8.79717 -1.408,0.39491 -2.85586,0.83263 -3.21747,0.97271 -0.58358,0.22608 -0.80854,1.14866 -2.00195,8.21006 -1.59436,9.43379 -1.75306,10.00296 -3.23653,11.60747 -1.98032,2.14191 -2.90097,2.27115 -16.00213,2.24629 -8.08673,-0.0154 -11.81544,-0.13833 -12.87935,-0.4248 z"
         id="path3" />
    </g>
  </g>
</svg>
